<!-- icon666.com - MILLIONS vector ICONS FREE --><svg id="Capa_1" enable-background="new 0 0 512 512" viewBox="0 0 512 512" xmlns="http://www.w3.org/2000/svg" xmlns:xlink="http://www.w3.org/1999/xlink"><linearGradient id="SVGID_1_" gradientUnits="userSpaceOnUse" x1="118.026" x2="509.132" y1="447.51" y2="56.405"><stop offset=".0485" stop-color="#ffdaec"></stop><stop offset=".9993" stop-color="#d1ddff"></stop></linearGradient><g><g><path d="m502.28 366.688c-30.799-94.485-73.474-202.319-32.806-298.402 11.818-27.922 4.417-65.147-29.257-68.126-25.062-2.217-45.28 19.034-68.213 29.391-43.598 19.69-94.157 2.574-141.996 2.574-173.924 0-280.721 230.89-197.216 329.292 86.518 101.952 176.381-5.716 290.367 121.881 64.645 72.363 216.632-1.534 179.121-116.61z" fill="url(#SVGID_1_)"></path></g><g><g><g><g fill="#2626bb"><path d="m177.107 94.637c17.956 0 32.564 14.608 32.564 32.564 0 2.761 2.239 5 5 5s5-2.239 5-5c0-17.956 14.608-32.564 32.564-32.564 2.761 0 5-2.239 5-5s-2.239-5-5-5c-17.956 0-32.564-14.608-32.564-32.564 0-2.761-2.239-5-5-5s-5 2.239-5 5c0 17.956-14.608 32.564-32.564 32.564-2.761 0-5 2.239-5 5s2.239 5 5 5z" opacity=".1"></path><path d="m472.052 380.465c-6.324-6.324-16.578-6.324-22.903 0l18.384-18.384c6.324-6.324 6.324-16.578 0-22.903-6.324-6.324-16.578-6.324-22.903 0l13.788-13.788c6.324-6.324 6.324-16.578 0-22.903-6.324-6.324-16.578-6.324-22.902 0l-18.384 18.384c6.324-6.324 6.324-16.578 0-22.902-6.324-6.324-16.578-6.324-22.902 0l-59.338 59.338v-22.36c0-3.524-1.138-6.775-3.049-9.434l48.423-48.423c13.035-13.035 20.248-29.678 21.672-46.714 7.942 5.944 13.092 15.425 13.092 26.086 0 2.761 2.239 5 5 5s5-2.239 5-5c0-17.956 14.608-32.564 32.564-32.564 2.761 0 5-2.239 5-5s-2.239-5-5-5c-17.956 0-32.564-14.608-32.564-32.564 0-2.761-2.239-5-5-5s-5 2.239-5 5c0 11.273-5.759 21.224-14.488 27.071-2.914-13.667-9.659-26.68-20.276-37.297-.474-.474-.966-.919-1.45-1.378l23.416-23.416c14.097-14.097 14.097-36.953 0-51.05-14.097-14.097-36.953-14.097-51.05 0l-8.807 8.807-8.807-8.807c-14.097-14.097-36.953-14.097-51.05 0-14.097 14.097-14.097 36.953 0 51.05l10.918 10.918c-6.903 3.495-13.385 8.108-19.153 13.876l-18.283 18.285-18.284-18.284c-29.266-29.266-76.716-29.266-105.983 0-29.266 29.266-29.266 76.716 0 105.983l48.423 48.423c-1.911 2.658-3.049 5.91-3.049 9.434v22.36l-59.338-59.338c-6.324-6.324-16.578-6.325-22.902 0-6.324 6.324-6.324 16.578 0 22.902l-18.384-18.384c-6.324-6.324-16.578-6.324-22.902 0s-6.324 16.578 0 22.903l13.788 13.788c-6.324-6.324-16.578-6.324-22.903 0-6.324 6.324-6.324 16.578 0 22.903l18.384 18.384c-6.324-6.324-16.578-6.324-22.903 0-6.324 6.324-6.324 16.578 0 22.903l58.968 58.968c25.297 25.297 66.312 25.297 91.609 0 12.666-12.666 18.988-29.271 18.971-45.872v-61.609l39.433 39.433c3.905 3.905 10.237 3.905 14.142 0l39.433-39.433v61.609c-.017 16.6 6.306 33.206 18.971 45.872 25.297 25.297 66.312 25.297 91.609 0l58.968-58.968c6.326-6.327 6.326-16.581.001-22.905z" opacity=".1"></path></g><g><g><path d="m256 165.393-18.284-18.284c-29.266-29.266-76.716-29.266-105.983 0-29.266 29.266-29.266 76.716 0 105.983l117.196 117.196c3.905 3.905 10.237 3.905 14.142 0l117.196-117.196c29.266-29.266 29.266-76.716 0-105.983-29.266-29.266-76.716-29.266-105.983 0z" fill="#ff5ba7"></path><path d="m389.79 158.75-40.34 40.35c-3.91 3.91-10.24 3.91-14.15 0l-52.78-52.79c-1.19-1.19-2.27-2.44-3.26-3.74 13.87-11.61 30.95-17.41 48.02-17.41 19.18 0 38.36 7.32 52.99 21.95 3.62 3.62 6.8 7.53 9.52 11.64z" fill="#fd2c8e"></path><path d="m149.411 235.414c-19.472-19.472-19.472-51.155 0-70.627 9.433-9.433 21.974-14.627 35.313-14.627 13.34 0 25.881 5.195 35.313 14.627l35.963 35.962 35.962-35.962c9.433-9.433 21.974-14.627 35.313-14.627s25.881 5.195 35.314 14.627c19.471 19.472 19.471 51.156 0 70.628l-106.589 106.588z" fill="#ff7eb7"></path><path d="m371.55 176.99-22.1 22.11c-3.91 3.91-10.24 3.91-14.15 0l-38.54-38.54c8.7-6.75 19.33-10.4 30.52-10.4 13.33 0 25.88 5.19 35.31 14.63 3.68 3.68 6.67 7.8 8.96 12.2z" fill="#ff5ba7"></path></g><g><path d="m342.376 80.072-8.807-8.807c-14.097-14.097-36.953-14.097-51.05 0-14.097 14.097-14.097 36.953 0 51.05l52.786 52.786c3.905 3.905 10.237 3.905 14.142 0l52.786-52.786c14.097-14.097 14.097-36.953 0-51.05-14.097-14.097-36.953-14.097-51.05 0z" fill="#ffa7ce"></path><path d="m296.661 108.172c-6.161-6.161-6.137-16.629 0-22.766 6.189-6.19 16.589-6.177 22.766 0l22.949 22.949s22.935-22.935 22.949-22.949c6.199-6.199 16.576-6.19 22.765 0 6.092 6.091 6.063 16.703 0 22.766l-45.715 45.715c.001.001-45.672-45.673-45.714-45.715z" fill="#ffc3de"></path></g><g fill="#ffc3de"><path d="m472.052 379.368c6.324-6.324 6.324-16.578 0-22.903-6.324-6.324-16.578-6.324-22.902 0l18.384-18.384c6.324-6.324 6.324-16.578 0-22.903-6.324-6.324-16.578-6.324-22.903 0l13.788-13.788c6.324-6.324 6.324-16.578 0-22.902s-16.578-6.324-22.902 0l-18.384 18.384c6.324-6.324 6.324-16.578 0-22.902-6.324-6.324-16.578-6.324-22.902 0l-59.338 59.338v-22.36c0-8.944-7.25-16.194-16.194-16.194-8.944 0-16.194 7.25-16.194 16.194v81.515c-.017 16.6 6.306 33.206 18.971 45.872 25.297 25.297 66.312 25.297 91.609 0z"></path><path d="m39.948 379.368c-6.324-6.324-6.324-16.578 0-22.903 6.324-6.324 16.578-6.324 22.902 0l-18.384-18.384c-6.324-6.324-6.324-16.578 0-22.903 6.324-6.324 16.578-6.324 22.903 0l-13.788-13.788c-6.324-6.324-6.324-16.578 0-22.902s16.578-6.324 22.902 0l18.384 18.384c-6.324-6.324-6.324-16.578 0-22.902 6.324-6.324 16.578-6.324 22.902 0l59.338 59.338v-22.36c0-8.944 7.25-16.194 16.194-16.194 8.944 0 16.194 7.25 16.194 16.194v81.515c.017 16.6-6.306 33.206-18.971 45.872-25.297 25.297-66.312 25.297-91.609 0z"></path></g></g><circle cx="214.672" cy="65.637" fill="#02ffb2" r="37.564"></circle><g><circle cx="420.03" cy="194.9" fill="#02ffb2" r="37.564"></circle><g fill="#2626bb"><path d="m177.107 70.637c17.956 0 32.564 14.608 32.564 32.564 0 2.761 2.239 5 5 5s5-2.239 5-5c0-17.956 14.608-32.564 32.564-32.564 2.761 0 5-2.239 5-5s-2.239-5-5-5c-17.956 0-32.564-14.608-32.564-32.564 0-2.761-2.239-5-5-5s-5 2.239-5 5c0 17.956-14.608 32.564-32.564 32.564-2.761 0-5 2.239-5 5s2.239 5 5 5zm37.565-22.561c3.982 7.448 10.113 13.579 17.561 17.561-7.447 3.982-13.579 10.113-17.561 17.561-3.982-7.448-10.113-13.579-17.561-17.561 7.448-3.982 13.579-10.114 17.561-17.561z"></path><path d="m475.588 352.929c-2.842-2.842-6.349-4.777-10.17-5.661l5.651-5.651c4.003-4.003 6.208-9.326 6.208-14.987s-2.205-10.984-6.208-14.987c-2.904-2.904-6.447-4.787-10.181-5.65l1.066-1.066c4.003-4.003 6.208-9.326 6.208-14.987 0-5.662-2.205-10.984-6.208-14.987-8.264-8.264-21.71-8.264-29.974 0l-5.662 5.662c-.863-3.733-2.747-7.277-5.65-10.181-4.003-4.003-9.326-6.208-14.987-6.208-5.662 0-10.984 2.205-14.987 6.208l-50.802 50.802v-10.289c0-3.055-.663-5.953-1.831-8.579l45.744-45.744c12.6-12.6 20.461-28.691 22.72-46.083 5.28 5.79 8.505 13.486 8.505 21.921 0 2.761 2.239 5 5 5s5-2.239 5-5c0-17.956 14.608-32.564 32.564-32.564 2.761 0 5-2.239 5-5s-2.239-5-5-5c-17.956 0-32.564-14.608-32.564-32.564 0-2.761-2.239-5-5-5s-5 2.239-5 5c0 9.274-3.903 17.648-10.145 23.584-3.218-13.155-9.681-25.158-19.003-35.184l19.886-19.886c7.762-7.763 12.037-18.083 12.037-29.061s-4.275-21.298-12.037-29.061c-7.763-7.762-18.083-12.037-29.061-12.037s-21.298 4.275-29.061 12.037l-5.27 5.274-5.271-5.271c-7.763-7.762-18.083-12.037-29.061-12.037s-21.298 4.275-29.061 12.037c-7.762 7.763-12.037 18.083-12.037 29.061s4.275 21.298 12.037 29.061l6.256 6.256c-5.232 3.236-10.091 7.072-14.495 11.468l-14.744 14.744-14.744-14.745c-31.171-31.171-81.891-31.171-113.062 0-15.099 15.1-23.415 35.174-23.415 56.526s8.315 41.426 23.415 56.525l45.744 45.744c-1.168 2.626-1.831 5.525-1.831 8.579v10.289l-50.802-50.802c-4.003-4.003-9.325-6.208-14.987-6.208-5.661 0-10.983 2.205-14.986 6.208-2.903 2.904-4.787 6.448-5.65 10.181l-5.662-5.662c-8.263-8.263-21.71-8.263-29.973 0-4.003 4.003-6.208 9.325-6.208 14.987 0 5.661 2.205 10.983 6.208 14.987l1.066 1.066c-3.733.863-7.277 2.747-10.181 5.65-4.003 4.003-6.208 9.326-6.208 14.987s2.205 10.984 6.208 14.987l5.651 5.651c-3.821.884-7.329 2.819-10.17 5.661-8.263 8.264-8.264 21.71 0 29.974l58.968 58.968c13.603 13.603 31.472 20.404 49.34 20.404s35.737-6.801 49.34-20.404c13.197-13.197 20.455-30.746 20.436-49.408v-49.536l30.898 30.898c2.924 2.924 6.765 4.386 10.605 4.386s7.682-1.462 10.605-4.386l30.898-30.898v49.53c-.019 18.667 7.238 36.216 20.436 49.414 13.604 13.603 31.472 20.404 49.34 20.404 17.869 0 35.737-6.801 49.34-20.404l58.968-58.968c8.265-8.265 8.264-21.711.001-29.975zm-55.558-175.59c3.982 7.448 10.113 13.579 17.561 17.561-7.448 3.982-13.579 10.113-17.561 17.561-3.982-7.447-10.113-13.579-17.561-17.561 7.448-3.982 13.579-10.113 17.561-17.561zm-133.975-102.539c6.062-6.062 14.026-9.094 21.989-9.094s15.927 3.031 21.989 9.094l8.807 8.807c1.953 1.952 5.118 1.952 7.071 0l8.807-8.807c12.125-12.125 31.854-12.125 43.979 0s12.125 31.854 0 43.979l-52.786 52.786c-.944.944-2.2 1.464-3.536 1.464s-2.591-.52-3.536-1.464l-52.786-52.786c-12.123-12.125-12.123-31.854.002-43.979zm-81.559 317.668c.017 15.992-6.201 31.026-17.507 42.332-23.308 23.309-61.231 23.308-84.538 0l-58.968-58.968c-4.365-4.365-4.365-11.467 0-15.832 2.114-2.114 4.925-3.279 7.916-3.279 2.99 0 5.8 1.164 7.914 3.277.001.001.001.001.002.002l26.818 26.817c.977.976 2.256 1.464 3.536 1.464s2.559-.488 3.536-1.464c1.953-1.953 1.953-5.119 0-7.071l-45.202-45.201c-2.114-2.114-3.279-4.925-3.279-7.916s1.165-5.801 3.279-7.916c4.364-4.365 11.464-4.364 15.83-.002.001.001.001.001.001.002l45.201 45.201c.977.976 2.256 1.464 3.536 1.464s2.559-.488 3.536-1.464c1.953-1.953 1.953-5.119 0-7.071l-58.989-58.989c-2.115-2.114-3.279-4.926-3.279-7.916s1.165-5.801 3.279-7.916c4.364-4.365 11.466-4.366 15.831 0l58.989 58.989c.977.976 2.256 1.464 3.536 1.464s2.559-.488 3.536-1.464c1.953-1.953 1.953-5.119 0-7.071l-40.605-40.605c-.001-.001-.002-.002-.003-.003-4.361-4.365-4.36-11.465.003-15.828 2.114-2.114 4.925-3.279 7.916-3.279s5.801 1.165 7.916 3.279l57.874 57.873v6.505l-16.4 10.159c-11.116 6.885-17.753 18.802-17.753 31.878v8.589c0 2.761 2.239 5 5 5s5-2.239 5-5v-8.589c0-9.589 4.867-18.328 13.019-23.377l18.768-11.625c1.472-.912 2.367-2.52 2.367-4.25v-33.72c0-6.172 5.022-11.194 11.194-11.194s11.194 5.022 11.194 11.194v81.521zm93.008-81.519v17.836l-37.97 37.97c-1.948 1.949-5.12 1.949-7.068 0l-37.97-37.97v-17.836c0-11.687-9.508-21.194-21.194-21.194-4.989 0-9.572 1.744-13.197 4.639l-44.839-44.839c-13.21-13.21-20.486-30.773-20.486-49.454s7.275-36.244 20.486-49.455c13.212-13.212 30.777-20.488 49.459-20.488s36.248 7.276 49.459 20.488l18.28 18.28c.938.938 2.209 1.464 3.536 1.464s2.598-.527 3.536-1.464l18.276-18.277c4.421-4.413 9.366-8.179 14.724-11.246l39.233 39.234c2.833 2.833 6.6 4.393 10.607 4.393s7.774-1.56 10.607-4.393l25.825-25.825c8.867 9.638 14.739 21.334 17.163 34.145-4.117 1.885-8.688 2.944-13.504 2.944-2.761 0-5 2.239-5 5s2.239 5 5 5c5.275 0 10.256 1.269 14.668 3.504-.806 17.435-7.978 33.729-20.4 46.15l-44.839 44.839c-3.625-2.895-8.208-4.639-13.197-4.639-11.687-.001-21.195 9.507-21.195 21.194zm171.013 64.883-58.968 58.968c-23.307 23.307-61.23 23.308-84.538 0-11.306-11.306-17.523-26.339-17.507-42.337v-81.514c0-6.172 5.022-11.194 11.194-11.194s11.194 5.022 11.194 11.194v33.72c0 1.731.896 3.339 2.367 4.25l18.768 11.625c8.152 5.049 13.019 13.788 13.019 23.377v8.589c0 2.761 2.239 5 5 5s5-2.239 5-5v-8.589c0-13.076-6.637-24.993-17.753-31.878l-16.4-10.159v-6.505l57.874-57.874c2.114-2.114 4.925-3.279 7.916-3.279s5.801 1.165 7.916 3.279c4.364 4.364 4.364 11.463.003 15.828-.001.001-.002.002-.003.003l-40.605 40.605c-1.953 1.953-1.953 5.119 0 7.071.977.976 2.256 1.464 3.536 1.464s2.559-.488 3.536-1.464l58.989-58.989c4.364-4.365 11.466-4.365 15.832 0 2.114 2.114 3.279 4.925 3.279 7.916 0 2.99-1.165 5.801-3.279 7.916l-58.989 58.989c-1.953 1.953-1.953 5.119 0 7.071.977.976 2.256 1.464 3.536 1.464s2.559-.488 3.536-1.464l45.201-45.201c.001-.001.001-.001.001-.002 4.366-4.363 11.466-4.362 15.83.002 2.114 2.114 3.279 4.925 3.279 7.916s-1.165 5.801-3.279 7.916l-45.201 45.201c-1.953 1.953-1.953 5.119 0 7.071.977.976 2.256 1.464 3.536 1.464 1.279 0 2.559-.488 3.536-1.464l26.818-26.817c.001-.001.001-.001.002-.002 2.114-2.113 4.924-3.277 7.914-3.277s5.801 1.165 7.916 3.279c4.358 4.364 4.358 11.466-.006 15.831z"></path></g></g></g><g fill="#fff"><path d="m272.107 232.464c-2.761 0-5 2.239-5 5v.115c0 2.761 2.239 5 5 5s5-2.239 5-5v-.115c0-2.761-2.239-5-5-5z"></path><path d="m256 232.464c-2.761 0-5 2.239-5 5v.115c0 2.761 2.239 5 5 5s5-2.239 5-5v-.115c0-2.761-2.239-5-5-5z"></path><path d="m239.893 232.464c-2.761 0-5 2.239-5 5v.115c0 2.761 2.239 5 5 5s5-2.239 5-5v-.115c0-2.761-2.239-5-5-5z"></path></g></g><g><path d="m229.461 473.642c-2.761 0-5-2.239-5-5 0-3.492-2.841-6.333-6.333-6.333-2.761 0-5-2.239-5-5s2.239-5 5-5c3.492 0 6.333-2.841 6.333-6.333 0-2.761 2.239-5 5-5s5 2.239 5 5c0 3.492 2.841 6.333 6.333 6.333 2.761 0 5 2.239 5 5s-2.239 5-5 5c-3.492 0-6.333 2.841-6.333 6.333 0 2.761-2.238 5-5 5z" fill="#01eba4"></path></g><g><path d="m65.517 93.761c-2.761 0-5-2.239-5-5 0-3.492-2.841-6.333-6.333-6.333-2.761 0-5-2.239-5-5s2.239-5 5-5c3.492 0 6.333-2.841 6.333-6.333 0-2.761 2.239-5 5-5s5 2.239 5 5c0 3.492 2.841 6.333 6.333 6.333 2.761 0 5 2.239 5 5s-2.239 5-5 5c-3.492 0-6.333 2.841-6.333 6.333 0 2.761-2.239 5-5 5z" fill="#01eba4"></path></g><g><path d="m451.757 145.194c-2.761 0-5-2.239-5-5 0-3.492-2.841-6.333-6.333-6.333-2.761 0-5-2.239-5-5s2.239-5 5-5c3.492 0 6.333-2.841 6.333-6.333 0-2.761 2.239-5 5-5s5 2.239 5 5c0 3.492 2.841 6.333 6.333 6.333 2.761 0 5 2.239 5 5s-2.239 5-5 5c-3.492 0-6.333 2.841-6.333 6.333 0 2.761-2.238 5-5 5z" fill="#ff7eb7"></path></g><g><path d="m143.808 106.629c-1.28 0-2.559-.488-3.536-1.464l-5.464-5.464-5.464 5.464c-1.953 1.952-5.118 1.952-7.071 0-1.953-1.953-1.953-5.119 0-7.071l9-9c1.953-1.952 5.118-1.952 7.071 0l9 9c1.953 1.953 1.953 5.119 0 7.071-.977.976-2.257 1.464-3.536 1.464z" fill="#ff7eb7"></path></g><g><path d="m354.5 43.425c-1.28 0-2.559-.488-3.536-1.464l-5.464-5.464-5.464 5.464c-1.953 1.952-5.118 1.952-7.071 0-1.953-1.953-1.953-5.119 0-7.071l9-9c1.953-1.952 5.118-1.952 7.071 0l9 9c1.953 1.953 1.953 5.119 0 7.071-.976.976-2.256 1.464-3.536 1.464z" fill="#6582fd"></path></g></g></g></svg>